<svg xmlns="http://www.w3.org/2000/svg" xmlns:xlink="http://www.w3.org/1999/xlink" viewBox="0 0 20 20"><g fill="none"><path d="M15.5 7a2.5 2.5 0 0 1 2.494 2.336L18 9.5v6a2.5 2.5 0 0 1-2.336 2.494L15.5 18h-6a2.5 2.5 0 0 1-2.495-2.336L7 15.5v-6a2.5 2.5 0 0 1 2.336-2.495L9.5 7h6zm-3 2a.5.5 0 0 0-.492.41L12 9.5V12H9.5l-.09.008a.5.5 0 0 0 0 .984L9.5 13H12v2.5l.008.09a.5.5 0 0 0 .984 0L13 15.5V13h2.5l.09-.008a.5.5 0 0 0 0-.984L15.5 12H13V9.5l-.008-.09A.5.5 0 0 0 12.5 9zm.162-5.305l.048.158L13.285 6H9a3 3 0 0 0-2.995 2.824L6 9v5.348a2.502 2.502 0 0 1-2.31-1.683l-.052-.17L2.085 6.7a2.5 2.5 0 0 1 1.61-3.015l.158-.047l5.795-1.553a2.5 2.5 0 0 1 2.957 1.458l.057.152z" fill="currentColor"></path></g></svg>